<?xml version="1.0" encoding="utf-8"?>
<svg width="24px" height="24px" viewBox="0 0 24 24" version="1.1" xmlns:xlink="http://www.w3.org/1999/xlink" xmlns="http://www.w3.org/2000/svg">
  <defs>
    <path d="M0 0L24 0L24 24L0 24L0 0Z" id="path_1" />
    <clipPath id="clip_1">
      <use xlink:href="#path_1" clip-rule="evenodd" fill-rule="evenodd" />
    </clipPath>
  </defs>
  <g id="Mask-Group">
    <path d="M0 0L24 0L24 24L0 24L0 0Z" id="Rectangle" fill="none" fill-rule="evenodd" stroke="none" />
    <g clip-path="url(#clip_1)">
      <path d="M0 1.719C0 0.7695 0.789 0 1.7625 0L22.2375 0C23.211 0 24 0.7695 24 1.719L24 22.281C24 23.2305 23.211 24 22.2375 24L1.7625 24C0.789 24 0 23.2305 0 22.281L0 1.719L0 1.719ZM7.4145 20.091L7.4145 9.2535L3.813 9.2535L3.813 20.091L7.4145 20.091L7.4145 20.091ZM5.6145 7.773C6.87 7.773 7.6515 6.942 7.6515 5.901C7.629 4.8375 6.8715 4.029 5.6385 4.029C4.4055 4.029 3.6 4.839 3.6 5.901C3.6 6.942 4.3815 7.773 5.5905 7.773L5.6145 7.773L5.6145 7.773ZM12.9765 20.091L12.9765 14.0385C12.9765 13.7145 13.0005 13.3905 13.0965 13.1595C13.356 12.513 13.9485 11.8425 14.9445 11.8425C16.248 11.8425 16.7685 12.8355 16.7685 14.2935L16.7685 20.091L20.37 20.091L20.37 13.875C20.37 10.545 18.594 8.997 16.224 8.997C14.313 8.997 13.4565 10.047 12.9765 10.7865L12.9765 10.824L12.9525 10.824C12.9605 10.8115 12.9685 10.799 12.9765 10.7865L12.9765 9.2535L9.3765 9.2535C9.4215 10.2705 9.3765 20.091 9.3765 20.091L12.9765 20.091L12.9765 20.091Z" id="Group" fill="#5C0CB8" fill-rule="evenodd" stroke="none" />
    </g>
  </g>
</svg>