<?xml version="1.0" encoding="utf-8"?>
<svg width="8px" height="14px" viewBox="0 0 8 14" version="1.1" xmlns:xlink="http://www.w3.org/1999/xlink" xmlns="http://www.w3.org/2000/svg">
  <defs>
    <path d="M8 0L8 0L8 14L0 14L0 0L8 0Z" id="path_1" />
    <clipPath id="clip_1">
      <use xlink:href="#path_1" clip-rule="evenodd" fill-rule="evenodd" />
    </clipPath>
  </defs>
  <g id="Frame">
    <path d="M8 0L8 0L8 14L0 14L0 0L8 0Z" id="Frame" fill="none" stroke="none" />
    <path d="M0.646894 0.646009C0.693339 0.599446 0.748515 0.562503 0.80926 0.537296C0.870005 0.51209 0.935126 0.499115 1.00089 0.499115C1.06666 0.499115 1.13178 0.51209 1.19253 0.537296C1.25327 0.562503 1.30845 0.599446 1.35489 0.646009L7.35489 6.64601C7.40146 6.69245 7.4384 6.74763 7.46361 6.80838C7.48881 6.86912 7.50179 6.93424 7.50179 7.00001C7.50179 7.06578 7.48881 7.1309 7.46361 7.19164C7.4384 7.25239 7.40146 7.30756 7.35489 7.35401L1.35489 13.354C1.26101 13.4479 1.13367 13.5006 1.00089 13.5006C0.868118 13.5006 0.74078 13.4479 0.646894 13.354C0.553007 13.2601 0.500262 13.1328 0.500262 13C0.500262 12.8672 0.553007 12.7399 0.646894 12.646L6.29389 7.00001L0.646894 1.35401C0.60033 1.30756 0.563387 1.25239 0.538181 1.19164C0.512974 1.1309 0.5 1.06578 0.5 1.00001C0.5 0.934242 0.512974 0.86912 0.538181 0.808375C0.563387 0.74763 0.60033 0.692455 0.646894 0.646009L0.646894 0.646009Z" id="Shape" fill="#5C0CB8" fill-rule="evenodd" stroke="none" clip-path="url(#clip_1)" />
  </g>
</svg>